{
  "source": "C:\\Users\\Peter\\Desktop\\stuff\\MIUN\\quantitative_research\\video_compression\\videos\\BVI-HD\\BVI-HD_CDVL_videos\\ORIG\\CarpetCircleFast_1920x1080_60fps.mp4",
  "output": "C:\\Users\\Peter\\Desktop\\stuff\\MIUN\\quantitative_research\\video_compression\\compressed_videos\\BVI-HD\\vp9\\1\\CarpetCircleFast_1920x1080_60fps_vp9.webm",
  "codec": "vp9",
  "ok": "Input #0, mov,mp4,m4a,3gp,3g2,mj2, from 'C:\\Users\\Peter\\Desktop\\stuff\\MIUN\\quantitative_research\\video_compression\\videos\\BVI-HD\\BVI-HD_CDVL_videos\\ORIG\\CarpetCircleFast_1920x1080_60fps.mp4':\n  Metadata:\n    major_brand     : isom\n    minor_version   : 512\n    compatible_brands: isomiso2avc1mp41\n    encoder         : Lavf54.28.101\n  Duration: 00:00:05.00, start: 0.000000, bitrate: 324759 kb/s\n  Stream #0:0[0x1](und): Video: h264 (High 4:4:4 Predictive) (avc1 / 0x31637661), yuv420p(progressive), 1920x1080, 324754 kb/s, 60 fps, 60 tbr, 60 tbn (default)\n    Metadata:\n      handler_name    : VideoHandler\n      vendor_id       : [0][0][0][0]\n[out#0/webm @ 000001a2992e0e00] Codec AVOption b:a (set bitrate (in bits/s)) has not been used for any stream. The most likely reason is either wrong type (e.g. a video option with no video streams) or that it is a private option of some decoder which was not actually used for any stream.\nStream mapping:\n  Stream #0:0 -> #0:0 (h264 (native) -> vp9 (libvpx-vp9))\nPress [q] to stop, [?] for help\n[libvpx-vp9 @ 000001a29b2b4c00] v1.15.2-100-g40561f514\nOutput #0, webm, to 'C:\\Users\\Peter\\Desktop\\stuff\\MIUN\\quantitative_research\\video_compression\\compressed_videos\\BVI-HD\\vp9\\1\\CarpetCircleFast_1920x1080_60fps_vp9.webm':\n  Metadata:\n    major_brand     : isom\n    minor_version   : 512\n    compatible_brands: isomiso2avc1mp41\n    encoder         : Lavf62.3.100\n  Stream #0:0(und): Video: vp9, yuv420p(tv, progressive), 1920x1080, q=2-31, 1000 kb/s, 60 fps, 1k tbn (default)\n    Metadata:\n      encoder         : Lavc62.11.100 libvpx-vp9\n      handler_name    : VideoHandler\n      vendor_id       : [0][0][0][0]\n    Side data:\n      cpb: bitrate max/min/avg: 0/0/0 buffer size: 1000000 vbv_delay: N/A\nframe=    0 fps=0.0 q=0.0 size=       0KiB time=N/A bitrate=N/A speed=N/A elapsed=0:00:00.53    \nframe=   10 fps=7.7 q=46.0 size=       1KiB time=00:00:00.16 bitrate=  30.4kbits/s speed=0.129x elapsed=0:00:01.29    \nframe=   18 fps=9.9 q=41.0 size=       1KiB time=00:00:00.30 bitrate=  16.9kbits/s speed=0.165x elapsed=0:00:01.82    \nframe=   26 fps= 11 q=40.0 size=       1KiB time=00:00:00.43 bitrate=  11.7kbits/s speed=0.185x elapsed=0:00:02.33    \nframe=   35 fps= 12 q=40.0 size=       1KiB time=00:00:00.58 bitrate=   8.7kbits/s speed=0.204x elapsed=0:00:02.85    \nframe=   43 fps= 13 q=39.0 size=       1KiB time=00:00:00.71 bitrate=   7.1kbits/s speed=0.212x elapsed=0:00:03.38    \nframe=   50 fps= 13 q=39.0 size=       1KiB time=00:00:00.83 bitrate=   6.1kbits/s speed=0.214x elapsed=0:00:03.89    \nframe=   58 fps= 13 q=56.0 size=       1KiB time=00:00:00.96 bitrate=   5.2kbits/s speed=0.219x elapsed=0:00:04.41    \nframe=   66 fps= 13 q=53.0 size=       1KiB time=00:00:01.10 bitrate=   4.6kbits/s speed=0.223x elapsed=0:00:04.93    \nframe=   72 fps= 13 q=56.0 size=       1KiB time=00:00:01.20 bitrate=   4.2kbits/s speed=0.22x elapsed=0:00:05.45    \nframe=   82 fps= 14 q=42.0 size=       1KiB time=00:00:01.36 bitrate=   3.7kbits/s speed=0.229x elapsed=0:00:05.98    \nframe=   88 fps= 14 q=47.0 size=       1KiB time=00:00:01.46 bitrate=   3.5kbits/s speed=0.226x elapsed=0:00:06.50    \nframe=   96 fps= 14 q=47.0 size=       1KiB time=00:00:01.60 bitrate=   3.2kbits/s speed=0.228x elapsed=0:00:07.03    \nframe=  103 fps= 14 q=47.0 size=       1KiB time=00:00:01.71 bitrate=   2.9kbits/s speed=0.227x elapsed=0:00:07.57    \nframe=  109 fps= 13 q=42.0 size=       1KiB time=00:00:01.81 bitrate=   2.8kbits/s speed=0.224x elapsed=0:00:08.10    \nframe=  118 fps= 14 q=52.0 size=       1KiB time=00:00:01.96 bitrate=   2.6kbits/s speed=0.228x elapsed=0:00:08.62    \nframe=  127 fps= 14 q=45.0 size=       1KiB time=00:00:02.11 bitrate=   2.4kbits/s speed=0.231x elapsed=0:00:09.16    \nframe=  136 fps= 14 q=39.0 size=     256KiB time=00:00:02.26 bitrate= 925.2kbits/s speed=0.234x elapsed=0:00:09.70    \nframe=  144 fps= 14 q=37.0 size=     256KiB time=00:00:02.40 bitrate= 873.8kbits/s speed=0.235x elapsed=0:00:10.22    \nframe=  152 fps= 14 q=31.0 size=     256KiB time=00:00:02.53 bitrate= 827.8kbits/s speed=0.236x elapsed=0:00:10.74    \nframe=  160 fps= 14 q=38.0 size=     256KiB time=00:00:02.66 bitrate= 786.4kbits/s speed=0.237x elapsed=0:00:11.26    \nframe=  168 fps= 14 q=37.0 size=     256KiB time=00:00:02.80 bitrate= 749.0kbits/s speed=0.237x elapsed=0:00:11.79    \nframe=  176 fps= 14 q=28.0 size=     256KiB time=00:00:02.93 bitrate= 714.9kbits/s speed=0.238x elapsed=0:00:12.32    \nframe=  185 fps= 14 q=37.0 size=     256KiB time=00:00:03.08 bitrate= 680.2kbits/s speed=0.24x elapsed=0:00:12.82    \nframe=  193 fps= 14 q=50.0 size=     256KiB time=00:00:03.21 bitrate= 652.0kbits/s speed=0.241x elapsed=0:00:13.35    \nframe=  201 fps= 14 q=47.0 size=     256KiB time=00:00:03.35 bitrate= 626.0kbits/s speed=0.241x elapsed=0:00:13.90    \nframe=  209 fps= 14 q=45.0 size=     256KiB time=00:00:03.48 bitrate= 602.1kbits/s speed=0.241x elapsed=0:00:14.44    \nframe=  216 fps= 14 q=39.0 size=     256KiB time=00:00:03.60 bitrate= 582.5kbits/s speed=0.24x elapsed=0:00:14.97    \nframe=  223 fps= 14 q=48.0 size=     256KiB time=00:00:03.71 bitrate= 564.3kbits/s speed=0.24x elapsed=0:00:15.49    \nframe=  232 fps= 14 q=50.0 size=     256KiB time=00:00:03.86 bitrate= 542.4kbits/s speed=0.241x elapsed=0:00:16.02    \nframe=  240 fps= 14 q=41.0 size=     256KiB time=00:00:04.00 bitrate= 524.3kbits/s speed=0.241x elapsed=0:00:16.56    \nframe=  248 fps= 15 q=38.0 size=     256KiB time=00:00:04.13 bitrate= 507.4kbits/s speed=0.242x elapsed=0:00:17.09    \nframe=  256 fps= 15 q=39.0 size=     256KiB time=00:00:04.26 bitrate= 491.5kbits/s speed=0.242x elapsed=0:00:17.63    \nframe=  266 fps= 15 q=39.0 size=     512KiB time=00:00:04.43 bitrate= 946.1kbits/s speed=0.244x elapsed=0:00:18.15    \nframe=  275 fps= 15 q=38.0 size=     512KiB time=00:00:04.58 bitrate= 915.1kbits/s speed=0.245x elapsed=0:00:18.69    \nframe=  276 fps= 14 q=38.0 size=     512KiB time=00:00:04.60 bitrate= 911.8kbits/s speed=0.239x elapsed=0:00:19.21    \nframe=  276 fps= 14 q=38.0 size=     512KiB time=00:00:04.60 bitrate= 911.8kbits/s speed=0.233x elapsed=0:00:19.73    \nframe=  276 fps= 14 q=38.0 size=     512KiB time=00:00:04.60 bitrate= 911.8kbits/s speed=0.227x elapsed=0:00:20.25    \n[out#0/webm @ 000001a2992e0e00] video:757KiB audio:0KiB subtitle:0KiB other streams:0KiB global headers:0KiB muxing overhead: 0.364997%\nframe=  300 fps= 15 q=37.0 Lsize=     759KiB time=00:00:05.00 bitrate=1244.2kbits/s speed=0.247x elapsed=0:00:20.26    \n",
  "seconds": 20.48991632461548,
  "probe_out": {}
}